<svg xmlns="http://www.w3.org/2000/svg" xml:space="preserve" width="120.65mm" height="603.25mm" version="1.1" style="shape-rendering:geometricPrecision; text-rendering:geometricPrecision; image-rendering:optimizeQuality; fill-rule:evenodd; clip-rule:evenodd"
viewBox="0 0 9956 49779"
 xmlns:xlink="http://www.w3.org/1999/xlink">
 <!-- Created by: Treedbox, treedbox.com.br -->
 <defs>
  <style type="text/css">
   <![CDATA[
    .fil0 {fill:none}
    .fil1 {fill:none}
    .fil2 {fill:#fff}
    .fil3 {fill:#ccc}
    .fil4 {fill:#000}
   ]]>
  </style>
 </defs>
 <g id="geo">
  <rect class="fil0" width="9956" height="49779"/>
  <g id="_584428544">
   <path class="fil1" d="M4978 2507c1365,0 2471,1106 2471,2471 0,1365 -1106,2471 -2471,2471 -1365,0 -2471,-1106 -2471,-2471 0,-1365 1106,-2471 2471,-2471zm0 1155c726,0 1315,589 1315,1316 0,726 -589,1315 -1315,1315 -727,0 -1316,-589 -1316,-1315 0,-727 589,-1316 1316,-1316z"/>
   <path class="fil2" d="M6055 2753c500,243 905,648 1147,1148l-1040 503c-129,-265 -345,-481 -611,-610l504 -1041zm1147 3302c-242,500 -647,905 -1147,1147l-504 -1040c266,-129 482,-345 611,-611l1040 504zm-3301 1147c-500,-242 -905,-647 -1148,-1147l1041 -504c129,266 345,482 610,611l-503 1040zm-1148 -3301c243,-500 648,-905 1148,-1148l503 1041c-265,129 -481,345 -610,610l-1041 -503z"/>
  </g>
  <g id="_584477984">
   <path class="fil1" d="M4978 22418c1365,0 2471,1107 2471,2471 0,1365 -1106,2472 -2471,2472 -1365,0 -2471,-1107 -2471,-2472 0,-1364 1106,-2471 2471,-2471zm0 1156c726,0 1315,589 1315,1315 0,727 -589,1316 -1315,1316 -727,0 -1316,-589 -1316,-1316 0,-726 589,-1315 1316,-1315z"/>
   <path class="fil3" d="M6055 22665c500,242 905,648 1147,1147l-1040 504c-129,-266 -345,-482 -611,-611l504 -1040zm1147 3302c-242,499 -647,905 -1147,1147l-504 -1040c266,-129 482,-345 611,-611l1040 504zm-3301 1147c-500,-242 -905,-648 -1148,-1147l1041 -504c129,266 345,482 610,611l-503 1040zm-1148 -3302c243,-499 648,-905 1148,-1147l503 1040c-265,129 -481,345 -610,611l-1041 -504z"/>
  </g>
  <g id="_584469312">
   <path class="fil1" d="M4978 42330c1365,0 2471,1106 2471,2471 0,1365 -1106,2471 -2471,2471 -1365,0 -2471,-1106 -2471,-2471 0,-1365 1106,-2471 2471,-2471zm0 1155c726,0 1315,589 1315,1316 0,726 -589,1315 -1315,1315 -727,0 -1316,-589 -1316,-1315 0,-727 589,-1316 1316,-1316z"/>
   <path class="fil4" d="M6055 42576c500,243 905,648 1147,1148l-1040 503c-129,-265 -345,-481 -611,-610l504 -1041zm1147 3302c-242,500 -647,905 -1147,1147l-504 -1040c266,-129 482,-345 611,-611l1040 504zm-3301 1147c-500,-242 -905,-647 -1148,-1147l1041 -504c129,266 345,482 610,611l-503 1040zm-1148 -3301c243,-500 648,-905 1148,-1148l503 1041c-265,129 -481,345 -610,610l-1041 -503z"/>
  </g>
 </g>
</svg>